<mxfile host="Electron" modified="2024-01-14T19:36:40.503Z" agent="Mozilla/5.0 (Windows NT 10.0; Win64; x64) AppleWebKit/537.36 (KHTML, like Gecko) draw.io/22.1.18 Chrome/120.0.6099.199 Electron/28.1.2 Safari/537.36" etag="ceVkty6j8zbK0RZlcc6I" version="22.1.18" type="device">
  <diagram name="Page-1" id="EFl0bf7s4mVanKElNCN2">
    <mxGraphModel dx="3452" dy="1553" grid="1" gridSize="10" guides="1" tooltips="1" connect="1" arrows="1" fold="1" page="1" pageScale="1" pageWidth="827" pageHeight="1169" math="0" shadow="0">
      <root>
        <mxCell id="0" />
        <mxCell id="1" parent="0" />
        <mxCell id="cwwSHrmBeuEmUc9zqaJa-1" value="&lt;font style=&quot;font-size: 36px;&quot;&gt;&lt;b&gt;ISR - Interrupt Service Routine&lt;/b&gt;&lt;/font&gt;" style="text;html=1;strokeColor=none;fillColor=none;align=center;verticalAlign=middle;whiteSpace=wrap;rounded=0;" parent="1" vertex="1">
          <mxGeometry x="119" y="80" width="590" height="30" as="geometry" />
        </mxCell>
        <mxCell id="cwwSHrmBeuEmUc9zqaJa-17" style="edgeStyle=orthogonalEdgeStyle;rounded=0;orthogonalLoop=1;jettySize=auto;html=1;entryX=0;entryY=0.5;entryDx=0;entryDy=0;" parent="1" source="cwwSHrmBeuEmUc9zqaJa-2" target="cwwSHrmBeuEmUc9zqaJa-15" edge="1">
          <mxGeometry relative="1" as="geometry" />
        </mxCell>
        <mxCell id="cwwSHrmBeuEmUc9zqaJa-2" value="INT0" style="rounded=1;whiteSpace=wrap;html=1;fillColor=#fff2cc;strokeColor=#d6b656;" parent="1" vertex="1">
          <mxGeometry x="84" y="210" width="120" height="60" as="geometry" />
        </mxCell>
        <mxCell id="cwwSHrmBeuEmUc9zqaJa-46" value="" style="edgeStyle=orthogonalEdgeStyle;rounded=0;orthogonalLoop=1;jettySize=auto;html=1;" parent="1" source="cwwSHrmBeuEmUc9zqaJa-3" target="cwwSHrmBeuEmUc9zqaJa-45" edge="1">
          <mxGeometry relative="1" as="geometry" />
        </mxCell>
        <mxCell id="cwwSHrmBeuEmUc9zqaJa-3" value="TMR0" style="rounded=1;whiteSpace=wrap;html=1;fillColor=#dae8fc;strokeColor=#6c8ebf;" parent="1" vertex="1">
          <mxGeometry x="84" y="350" width="120" height="60" as="geometry" />
        </mxCell>
        <mxCell id="cwwSHrmBeuEmUc9zqaJa-42" value="" style="edgeStyle=orthogonalEdgeStyle;rounded=0;orthogonalLoop=1;jettySize=auto;html=1;" parent="1" source="cwwSHrmBeuEmUc9zqaJa-4" target="cwwSHrmBeuEmUc9zqaJa-41" edge="1">
          <mxGeometry relative="1" as="geometry" />
        </mxCell>
        <mxCell id="cwwSHrmBeuEmUc9zqaJa-4" value="TMR1" style="rounded=1;whiteSpace=wrap;html=1;fillColor=#dae8fc;strokeColor=#6c8ebf;" parent="1" vertex="1">
          <mxGeometry x="84" y="524.54" width="120" height="60" as="geometry" />
        </mxCell>
        <mxCell id="cwwSHrmBeuEmUc9zqaJa-56" value="" style="edgeStyle=orthogonalEdgeStyle;rounded=0;orthogonalLoop=1;jettySize=auto;html=1;" parent="1" source="cwwSHrmBeuEmUc9zqaJa-5" target="cwwSHrmBeuEmUc9zqaJa-55" edge="1">
          <mxGeometry relative="1" as="geometry" />
        </mxCell>
        <mxCell id="cwwSHrmBeuEmUc9zqaJa-5" value="TMR2" style="rounded=1;whiteSpace=wrap;html=1;fillColor=#dae8fc;strokeColor=#6c8ebf;" parent="1" vertex="1">
          <mxGeometry x="84" y="690" width="120" height="60" as="geometry" />
        </mxCell>
        <mxCell id="cwwSHrmBeuEmUc9zqaJa-70" value="" style="edgeStyle=orthogonalEdgeStyle;rounded=0;orthogonalLoop=1;jettySize=auto;html=1;" parent="1" source="cwwSHrmBeuEmUc9zqaJa-7" target="cwwSHrmBeuEmUc9zqaJa-69" edge="1">
          <mxGeometry relative="1" as="geometry" />
        </mxCell>
        <mxCell id="cwwSHrmBeuEmUc9zqaJa-7" value="TMR6" style="rounded=1;whiteSpace=wrap;html=1;fillColor=#dae8fc;strokeColor=#6c8ebf;" parent="1" vertex="1">
          <mxGeometry x="84" y="850" width="120" height="60" as="geometry" />
        </mxCell>
        <mxCell id="cwwSHrmBeuEmUc9zqaJa-8" value="High priority (5ms)" style="text;html=1;strokeColor=none;fillColor=none;align=center;verticalAlign=middle;whiteSpace=wrap;rounded=0;" parent="1" vertex="1">
          <mxGeometry x="14" y="365" width="60" height="30" as="geometry" />
        </mxCell>
        <mxCell id="cwwSHrmBeuEmUc9zqaJa-9" value="Low priority (250ms)" style="text;html=1;strokeColor=none;fillColor=none;align=center;verticalAlign=middle;whiteSpace=wrap;rounded=0;" parent="1" vertex="1">
          <mxGeometry x="14" y="539.54" width="60" height="30" as="geometry" />
        </mxCell>
        <mxCell id="cwwSHrmBeuEmUc9zqaJa-10" value="High priority (5ms)" style="text;html=1;strokeColor=none;fillColor=none;align=center;verticalAlign=middle;whiteSpace=wrap;rounded=0;" parent="1" vertex="1">
          <mxGeometry x="14" y="705" width="60" height="30" as="geometry" />
        </mxCell>
        <mxCell id="cwwSHrmBeuEmUc9zqaJa-11" value="Low priority (250ms)" style="text;html=1;strokeColor=none;fillColor=none;align=center;verticalAlign=middle;whiteSpace=wrap;rounded=0;" parent="1" vertex="1">
          <mxGeometry x="14" y="865" width="60" height="30" as="geometry" />
        </mxCell>
        <mxCell id="cwwSHrmBeuEmUc9zqaJa-13" value="Button Pressed" style="text;html=1;strokeColor=none;fillColor=none;align=center;verticalAlign=middle;whiteSpace=wrap;rounded=0;" parent="1" vertex="1">
          <mxGeometry x="14" y="225" width="60" height="30" as="geometry" />
        </mxCell>
        <mxCell id="cwwSHrmBeuEmUc9zqaJa-18" style="edgeStyle=orthogonalEdgeStyle;rounded=0;orthogonalLoop=1;jettySize=auto;html=1;" parent="1" source="cwwSHrmBeuEmUc9zqaJa-15" target="cwwSHrmBeuEmUc9zqaJa-16" edge="1">
          <mxGeometry relative="1" as="geometry" />
        </mxCell>
        <mxCell id="cwwSHrmBeuEmUc9zqaJa-15" value="Desliga o Sistema de Controlo" style="rounded=1;whiteSpace=wrap;html=1;" parent="1" vertex="1">
          <mxGeometry x="244" y="210" width="120" height="60" as="geometry" />
        </mxCell>
        <mxCell id="cwwSHrmBeuEmUc9zqaJa-16" value="Desliga a Bomba de água" style="rounded=1;whiteSpace=wrap;html=1;" parent="1" vertex="1">
          <mxGeometry x="394" y="210" width="120" height="60" as="geometry" />
        </mxCell>
        <mxCell id="cwwSHrmBeuEmUc9zqaJa-34" value="" style="edgeStyle=orthogonalEdgeStyle;rounded=0;orthogonalLoop=1;jettySize=auto;html=1;" parent="1" source="cwwSHrmBeuEmUc9zqaJa-23" target="cwwSHrmBeuEmUc9zqaJa-33" edge="1">
          <mxGeometry relative="1" as="geometry" />
        </mxCell>
        <mxCell id="cwwSHrmBeuEmUc9zqaJa-23" value="Lê os sensores de nivel" style="rounded=1;whiteSpace=wrap;html=1;direction=east;" parent="1" vertex="1">
          <mxGeometry x="544" y="350" width="120" height="60" as="geometry" />
        </mxCell>
        <mxCell id="cwwSHrmBeuEmUc9zqaJa-74" style="edgeStyle=orthogonalEdgeStyle;rounded=0;orthogonalLoop=1;jettySize=auto;html=1;entryX=0;entryY=0.5;entryDx=0;entryDy=0;" parent="1" source="cwwSHrmBeuEmUc9zqaJa-25" target="cwwSHrmBeuEmUc9zqaJa-23" edge="1">
          <mxGeometry relative="1" as="geometry" />
        </mxCell>
        <mxCell id="cwwSHrmBeuEmUc9zqaJa-25" value="ADC Start Conversion" style="rounded=1;whiteSpace=wrap;html=1;" parent="1" vertex="1">
          <mxGeometry x="394" y="350" width="120" height="60" as="geometry" />
        </mxCell>
        <mxCell id="cwwSHrmBeuEmUc9zqaJa-30" value="" style="edgeStyle=orthogonalEdgeStyle;rounded=0;orthogonalLoop=1;jettySize=auto;html=1;" parent="1" source="cwwSHrmBeuEmUc9zqaJa-28" target="cwwSHrmBeuEmUc9zqaJa-29" edge="1">
          <mxGeometry relative="1" as="geometry" />
        </mxCell>
        <mxCell id="cwwSHrmBeuEmUc9zqaJa-28" value="ADC_Interrupt" style="rounded=1;whiteSpace=wrap;html=1;fillColor=#f8cecc;strokeColor=#b85450;" parent="1" vertex="1">
          <mxGeometry x="84" y="970" width="120" height="60" as="geometry" />
        </mxCell>
        <mxCell id="cwwSHrmBeuEmUc9zqaJa-32" value="" style="edgeStyle=orthogonalEdgeStyle;rounded=0;orthogonalLoop=1;jettySize=auto;html=1;" parent="1" source="cwwSHrmBeuEmUc9zqaJa-29" target="cwwSHrmBeuEmUc9zqaJa-31" edge="1">
          <mxGeometry relative="1" as="geometry" />
        </mxCell>
        <mxCell id="cwwSHrmBeuEmUc9zqaJa-29" value="Lê o potenciometro" style="whiteSpace=wrap;html=1;rounded=1;" parent="1" vertex="1">
          <mxGeometry x="284" y="970" width="120" height="60" as="geometry" />
        </mxCell>
        <mxCell id="cwwSHrmBeuEmUc9zqaJa-31" value="Converte para um valor de 0-100%" style="whiteSpace=wrap;html=1;rounded=1;" parent="1" vertex="1">
          <mxGeometry x="484" y="970" width="120" height="60" as="geometry" />
        </mxCell>
        <mxCell id="cwwSHrmBeuEmUc9zqaJa-33" value="Converte num valor de 0-100%" style="whiteSpace=wrap;html=1;rounded=1;" parent="1" vertex="1">
          <mxGeometry x="694" y="350" width="120" height="60" as="geometry" />
        </mxCell>
        <mxCell id="cwwSHrmBeuEmUc9zqaJa-38" value="When ADC finished a read" style="text;html=1;strokeColor=none;fillColor=none;align=center;verticalAlign=middle;whiteSpace=wrap;rounded=0;" parent="1" vertex="1">
          <mxGeometry x="14" y="985" width="60" height="30" as="geometry" />
        </mxCell>
        <mxCell id="cwwSHrmBeuEmUc9zqaJa-44" value="" style="edgeStyle=orthogonalEdgeStyle;rounded=0;orthogonalLoop=1;jettySize=auto;html=1;" parent="1" source="cwwSHrmBeuEmUc9zqaJa-41" target="cwwSHrmBeuEmUc9zqaJa-43" edge="1">
          <mxGeometry relative="1" as="geometry" />
        </mxCell>
        <mxCell id="cwwSHrmBeuEmUc9zqaJa-52" value="true" style="edgeLabel;html=1;align=center;verticalAlign=middle;resizable=0;points=[];" parent="cwwSHrmBeuEmUc9zqaJa-44" vertex="1" connectable="0">
          <mxGeometry x="-0.0917" y="6" relative="1" as="geometry">
            <mxPoint x="-2" y="6" as="offset" />
          </mxGeometry>
        </mxCell>
        <mxCell id="cwwSHrmBeuEmUc9zqaJa-41" value="if SistemaControlo estiver ligado" style="rhombus;whiteSpace=wrap;html=1;rounded=1;fillColor=#f5f5f5;fontColor=#333333;strokeColor=#666666;" parent="1" vertex="1">
          <mxGeometry x="259" y="497" width="120" height="115.09" as="geometry" />
        </mxCell>
        <mxCell id="cwwSHrmBeuEmUc9zqaJa-43" value="Pisca o Led laranja com uma frequencia de 2Hz" style="rounded=1;whiteSpace=wrap;html=1;" parent="1" vertex="1">
          <mxGeometry x="439" y="524.54" width="120" height="60" as="geometry" />
        </mxCell>
        <mxCell id="cwwSHrmBeuEmUc9zqaJa-47" value="" style="edgeStyle=orthogonalEdgeStyle;rounded=0;orthogonalLoop=1;jettySize=auto;html=1;" parent="1" source="cwwSHrmBeuEmUc9zqaJa-45" target="cwwSHrmBeuEmUc9zqaJa-25" edge="1">
          <mxGeometry relative="1" as="geometry" />
        </mxCell>
        <mxCell id="cwwSHrmBeuEmUc9zqaJa-51" value="true" style="edgeLabel;html=1;align=center;verticalAlign=middle;resizable=0;points=[];" parent="cwwSHrmBeuEmUc9zqaJa-47" vertex="1" connectable="0">
          <mxGeometry x="-0.2583" y="2" relative="1" as="geometry">
            <mxPoint as="offset" />
          </mxGeometry>
        </mxCell>
        <mxCell id="cwwSHrmBeuEmUc9zqaJa-49" style="edgeStyle=orthogonalEdgeStyle;rounded=0;orthogonalLoop=1;jettySize=auto;html=1;entryX=0.5;entryY=1;entryDx=0;entryDy=0;" parent="1" source="cwwSHrmBeuEmUc9zqaJa-45" target="cwwSHrmBeuEmUc9zqaJa-23" edge="1">
          <mxGeometry relative="1" as="geometry">
            <Array as="points">
              <mxPoint x="284" y="470" />
              <mxPoint x="604" y="470" />
            </Array>
          </mxGeometry>
        </mxCell>
        <mxCell id="cwwSHrmBeuEmUc9zqaJa-50" value="false" style="edgeLabel;html=1;align=center;verticalAlign=middle;resizable=0;points=[];" parent="cwwSHrmBeuEmUc9zqaJa-49" vertex="1" connectable="0">
          <mxGeometry x="-0.3859" y="-5" relative="1" as="geometry">
            <mxPoint x="61" y="-8" as="offset" />
          </mxGeometry>
        </mxCell>
        <mxCell id="cwwSHrmBeuEmUc9zqaJa-45" value="if MecanismoControlo == 1" style="rhombus;whiteSpace=wrap;html=1;rounded=1;fillColor=#f5f5f5;fontColor=#333333;strokeColor=#666666;" parent="1" vertex="1">
          <mxGeometry x="224" y="320" width="126" height="120" as="geometry" />
        </mxCell>
        <mxCell id="cwwSHrmBeuEmUc9zqaJa-58" value="" style="edgeStyle=orthogonalEdgeStyle;rounded=0;orthogonalLoop=1;jettySize=auto;html=1;" parent="1" source="cwwSHrmBeuEmUc9zqaJa-55" target="cwwSHrmBeuEmUc9zqaJa-57" edge="1">
          <mxGeometry relative="1" as="geometry" />
        </mxCell>
        <mxCell id="cwwSHrmBeuEmUc9zqaJa-55" value="Calcula o erro" style="rounded=1;whiteSpace=wrap;html=1;" parent="1" vertex="1">
          <mxGeometry x="284" y="690" width="120" height="60" as="geometry" />
        </mxCell>
        <mxCell id="cwwSHrmBeuEmUc9zqaJa-60" value="" style="edgeStyle=orthogonalEdgeStyle;rounded=0;orthogonalLoop=1;jettySize=auto;html=1;" parent="1" source="cwwSHrmBeuEmUc9zqaJa-57" target="cwwSHrmBeuEmUc9zqaJa-59" edge="1">
          <mxGeometry relative="1" as="geometry" />
        </mxCell>
        <mxCell id="cwwSHrmBeuEmUc9zqaJa-61" value="true" style="edgeLabel;html=1;align=center;verticalAlign=middle;resizable=0;points=[];" parent="cwwSHrmBeuEmUc9zqaJa-60" vertex="1" connectable="0">
          <mxGeometry x="0.0333" y="-3" relative="1" as="geometry">
            <mxPoint x="-6" y="-3" as="offset" />
          </mxGeometry>
        </mxCell>
        <mxCell id="cwwSHrmBeuEmUc9zqaJa-67" style="edgeStyle=orthogonalEdgeStyle;rounded=0;orthogonalLoop=1;jettySize=auto;html=1;entryX=0;entryY=0.5;entryDx=0;entryDy=0;" parent="1" source="cwwSHrmBeuEmUc9zqaJa-57" target="cwwSHrmBeuEmUc9zqaJa-66" edge="1">
          <mxGeometry relative="1" as="geometry">
            <Array as="points">
              <mxPoint x="544" y="805.09" />
            </Array>
          </mxGeometry>
        </mxCell>
        <mxCell id="cwwSHrmBeuEmUc9zqaJa-68" value="false" style="edgeLabel;html=1;align=center;verticalAlign=middle;resizable=0;points=[];" parent="cwwSHrmBeuEmUc9zqaJa-67" vertex="1" connectable="0">
          <mxGeometry x="0.0338" relative="1" as="geometry">
            <mxPoint x="16" as="offset" />
          </mxGeometry>
        </mxCell>
        <mxCell id="cwwSHrmBeuEmUc9zqaJa-57" value="if erro &amp;gt; 0" style="rhombus;whiteSpace=wrap;html=1;rounded=1;fillColor=#f5f5f5;fontColor=#333333;strokeColor=#666666;" parent="1" vertex="1">
          <mxGeometry x="504" y="680" width="80" height="80" as="geometry" />
        </mxCell>
        <mxCell id="cwwSHrmBeuEmUc9zqaJa-59" value="Liga a Bomba&amp;nbsp;" style="rounded=1;whiteSpace=wrap;html=1;" parent="1" vertex="1">
          <mxGeometry x="644" y="690" width="120" height="60" as="geometry" />
        </mxCell>
        <mxCell id="cwwSHrmBeuEmUc9zqaJa-66" value="Desliga a Bomba&amp;nbsp;" style="rounded=1;whiteSpace=wrap;html=1;" parent="1" vertex="1">
          <mxGeometry x="644" y="775.09" width="120" height="60" as="geometry" />
        </mxCell>
        <mxCell id="cwwSHrmBeuEmUc9zqaJa-72" value="" style="edgeStyle=orthogonalEdgeStyle;rounded=0;orthogonalLoop=1;jettySize=auto;html=1;" parent="1" source="cwwSHrmBeuEmUc9zqaJa-69" target="cwwSHrmBeuEmUc9zqaJa-71" edge="1">
          <mxGeometry relative="1" as="geometry" />
        </mxCell>
        <mxCell id="cwwSHrmBeuEmUc9zqaJa-69" value="Pisca o led &quot;heart beat&quot;" style="whiteSpace=wrap;html=1;rounded=1;" parent="1" vertex="1">
          <mxGeometry x="284" y="850" width="120" height="60" as="geometry" />
        </mxCell>
        <mxCell id="cwwSHrmBeuEmUc9zqaJa-71" value="flag update display == 1" style="whiteSpace=wrap;html=1;rounded=1;" parent="1" vertex="1">
          <mxGeometry x="484" y="850" width="120" height="60" as="geometry" />
        </mxCell>
        <mxCell id="cwwSHrmBeuEmUc9zqaJa-75" value="só lê o adc se o mecanismo de controlo para o nivel de referencia for o potenciometro" style="text;html=1;strokeColor=none;fillColor=none;align=center;verticalAlign=middle;whiteSpace=wrap;rounded=0;" parent="1" vertex="1">
          <mxGeometry x="364" y="290" width="245" height="30" as="geometry" />
        </mxCell>
        <mxCell id="cwwSHrmBeuEmUc9zqaJa-81" value="" style="curved=1;endArrow=classic;html=1;rounded=0;" parent="1" edge="1">
          <mxGeometry width="50" height="50" relative="1" as="geometry">
            <mxPoint x="314" y="350" as="sourcePoint" />
            <mxPoint x="364" y="300" as="targetPoint" />
            <Array as="points">
              <mxPoint x="364" y="350" />
              <mxPoint x="314" y="300" />
            </Array>
          </mxGeometry>
        </mxCell>
        <mxCell id="cwwSHrmBeuEmUc9zqaJa-82" value="este timer é parado no while(true) se o sistema de controlo for desligado" style="text;html=1;strokeColor=none;fillColor=none;align=center;verticalAlign=middle;whiteSpace=wrap;rounded=0;" parent="1" vertex="1">
          <mxGeometry x="214" y="620" width="300" height="30" as="geometry" />
        </mxCell>
        <mxCell id="cwwSHrmBeuEmUc9zqaJa-83" value="" style="curved=1;endArrow=classic;html=1;rounded=0;entryX=0;entryY=0.25;entryDx=0;entryDy=0;exitX=0.5;exitY=1;exitDx=0;exitDy=0;" parent="1" source="cwwSHrmBeuEmUc9zqaJa-4" target="cwwSHrmBeuEmUc9zqaJa-82" edge="1">
          <mxGeometry width="50" height="50" relative="1" as="geometry">
            <mxPoint x="84" y="662.09" as="sourcePoint" />
            <mxPoint x="134" y="612.09" as="targetPoint" />
            <Array as="points">
              <mxPoint x="184" y="610" />
              <mxPoint x="154" y="640" />
            </Array>
          </mxGeometry>
        </mxCell>
        <mxCell id="cwwSHrmBeuEmUc9zqaJa-84" value="&lt;font style=&quot;font-size: 36px;&quot;&gt;&lt;b&gt;Main + While (true)&lt;/b&gt;&lt;/font&gt;" style="text;html=1;strokeColor=none;fillColor=none;align=center;verticalAlign=middle;whiteSpace=wrap;rounded=0;" parent="1" vertex="1">
          <mxGeometry x="-630" y="49.54" width="590" height="30" as="geometry" />
        </mxCell>
        <mxCell id="cwwSHrmBeuEmUc9zqaJa-131" style="edgeStyle=orthogonalEdgeStyle;rounded=0;orthogonalLoop=1;jettySize=auto;html=1;entryX=0;entryY=0.5;entryDx=0;entryDy=0;" parent="1" source="cwwSHrmBeuEmUc9zqaJa-85" target="cwwSHrmBeuEmUc9zqaJa-86" edge="1">
          <mxGeometry relative="1" as="geometry" />
        </mxCell>
        <mxCell id="cwwSHrmBeuEmUc9zqaJa-85" value="Desenha&amp;nbsp; o &quot;welcome Screen&quot; no LDC" style="rounded=1;whiteSpace=wrap;html=1;fillColor=#e1d5e7;strokeColor=#9673a6;" parent="1" vertex="1">
          <mxGeometry x="-740" y="150" width="120" height="60" as="geometry" />
        </mxCell>
        <mxCell id="cwwSHrmBeuEmUc9zqaJa-142" style="edgeStyle=orthogonalEdgeStyle;rounded=0;orthogonalLoop=1;jettySize=auto;html=1;entryX=0;entryY=0.5;entryDx=0;entryDy=0;" parent="1" source="cwwSHrmBeuEmUc9zqaJa-86" target="cwwSHrmBeuEmUc9zqaJa-92" edge="1">
          <mxGeometry relative="1" as="geometry" />
        </mxCell>
        <mxCell id="cwwSHrmBeuEmUc9zqaJa-86" value="Ativa as interrupcoes e cria os handlers para as mesma" style="rounded=1;whiteSpace=wrap;html=1;fillColor=#fff2cc;strokeColor=#d6b656;" parent="1" vertex="1">
          <mxGeometry x="-580" y="150.00000000000003" width="120" height="60" as="geometry" />
        </mxCell>
        <mxCell id="cwwSHrmBeuEmUc9zqaJa-89" style="edgeStyle=orthogonalEdgeStyle;rounded=0;orthogonalLoop=1;jettySize=auto;html=1;entryX=0.5;entryY=0;entryDx=0;entryDy=0;" parent="1" source="cwwSHrmBeuEmUc9zqaJa-87" target="cwwSHrmBeuEmUc9zqaJa-85" edge="1">
          <mxGeometry relative="1" as="geometry" />
        </mxCell>
        <mxCell id="cwwSHrmBeuEmUc9zqaJa-87" value="Start" style="ellipse;whiteSpace=wrap;html=1;fillColor=#d5e8d4;strokeColor=#82b366;" parent="1" vertex="1">
          <mxGeometry x="-740" y="49.54" width="120" height="80" as="geometry" />
        </mxCell>
        <mxCell id="cwwSHrmBeuEmUc9zqaJa-95" value="" style="edgeStyle=orthogonalEdgeStyle;rounded=0;orthogonalLoop=1;jettySize=auto;html=1;" parent="1" source="cwwSHrmBeuEmUc9zqaJa-92" target="cwwSHrmBeuEmUc9zqaJa-94" edge="1">
          <mxGeometry relative="1" as="geometry">
            <Array as="points">
              <mxPoint x="-350" y="270" />
              <mxPoint x="-640" y="270" />
            </Array>
          </mxGeometry>
        </mxCell>
        <mxCell id="cwwSHrmBeuEmUc9zqaJa-145" value="true" style="edgeLabel;html=1;align=center;verticalAlign=middle;resizable=0;points=[];" parent="cwwSHrmBeuEmUc9zqaJa-95" vertex="1" connectable="0">
          <mxGeometry x="-0.1911" y="3" relative="1" as="geometry">
            <mxPoint as="offset" />
          </mxGeometry>
        </mxCell>
        <mxCell id="cwwSHrmBeuEmUc9zqaJa-92" value="While (true)" style="rhombus;whiteSpace=wrap;html=1;rounded=1;fillColor=#f5f5f5;fontColor=#333333;strokeColor=#666666;" parent="1" vertex="1">
          <mxGeometry x="-400" y="132.50000000000006" width="100" height="95" as="geometry" />
        </mxCell>
        <mxCell id="cwwSHrmBeuEmUc9zqaJa-103" style="edgeStyle=orthogonalEdgeStyle;rounded=0;orthogonalLoop=1;jettySize=auto;html=1;entryX=0;entryY=0.5;entryDx=0;entryDy=0;" parent="1" source="cwwSHrmBeuEmUc9zqaJa-94" target="cwwSHrmBeuEmUc9zqaJa-96" edge="1">
          <mxGeometry relative="1" as="geometry" />
        </mxCell>
        <mxCell id="cwwSHrmBeuEmUc9zqaJa-104" value="false" style="edgeLabel;html=1;align=center;verticalAlign=middle;resizable=0;points=[];" parent="cwwSHrmBeuEmUc9zqaJa-103" vertex="1" connectable="0">
          <mxGeometry x="0.0789" y="-1" relative="1" as="geometry">
            <mxPoint x="-2" y="-1" as="offset" />
          </mxGeometry>
        </mxCell>
        <mxCell id="cwwSHrmBeuEmUc9zqaJa-106" value="" style="edgeStyle=orthogonalEdgeStyle;rounded=0;orthogonalLoop=1;jettySize=auto;html=1;" parent="1" source="cwwSHrmBeuEmUc9zqaJa-94" target="cwwSHrmBeuEmUc9zqaJa-105" edge="1">
          <mxGeometry relative="1" as="geometry" />
        </mxCell>
        <mxCell id="cwwSHrmBeuEmUc9zqaJa-107" value="true" style="edgeLabel;html=1;align=center;verticalAlign=middle;resizable=0;points=[];" parent="cwwSHrmBeuEmUc9zqaJa-106" vertex="1" connectable="0">
          <mxGeometry x="-0.2123" y="2" relative="1" as="geometry">
            <mxPoint as="offset" />
          </mxGeometry>
        </mxCell>
        <mxCell id="cwwSHrmBeuEmUc9zqaJa-94" value="if Sistema de controlo ligado" style="rhombus;whiteSpace=wrap;html=1;rounded=1;fillColor=#f5f5f5;fontColor=#333333;strokeColor=#666666;" parent="1" vertex="1">
          <mxGeometry x="-690" y="297.27" width="100" height="95" as="geometry" />
        </mxCell>
        <mxCell id="cwwSHrmBeuEmUc9zqaJa-99" value="" style="edgeStyle=orthogonalEdgeStyle;rounded=0;orthogonalLoop=1;jettySize=auto;html=1;" parent="1" source="cwwSHrmBeuEmUc9zqaJa-96" target="cwwSHrmBeuEmUc9zqaJa-98" edge="1">
          <mxGeometry relative="1" as="geometry" />
        </mxCell>
        <mxCell id="cwwSHrmBeuEmUc9zqaJa-96" value="TMR1 &amp;amp; TMR2 Stop" style="whiteSpace=wrap;html=1;rounded=1;" parent="1" vertex="1">
          <mxGeometry x="-550" y="314.7699999999999" width="120" height="60" as="geometry" />
        </mxCell>
        <mxCell id="cwwSHrmBeuEmUc9zqaJa-101" value="" style="edgeStyle=orthogonalEdgeStyle;rounded=0;orthogonalLoop=1;jettySize=auto;html=1;" parent="1" source="cwwSHrmBeuEmUc9zqaJa-98" target="cwwSHrmBeuEmUc9zqaJa-100" edge="1">
          <mxGeometry relative="1" as="geometry" />
        </mxCell>
        <mxCell id="cwwSHrmBeuEmUc9zqaJa-98" value="desliga o led laranja&amp;nbsp;" style="whiteSpace=wrap;html=1;rounded=1;" parent="1" vertex="1">
          <mxGeometry x="-410" y="314.7699999999999" width="120" height="60" as="geometry" />
        </mxCell>
        <mxCell id="cwwSHrmBeuEmUc9zqaJa-115" style="edgeStyle=orthogonalEdgeStyle;rounded=0;orthogonalLoop=1;jettySize=auto;html=1;entryX=0.5;entryY=0;entryDx=0;entryDy=0;" parent="1" source="cwwSHrmBeuEmUc9zqaJa-100" target="cwwSHrmBeuEmUc9zqaJa-110" edge="1">
          <mxGeometry relative="1" as="geometry">
            <Array as="points">
              <mxPoint x="-210" y="597.73" />
              <mxPoint x="-640" y="597.73" />
            </Array>
          </mxGeometry>
        </mxCell>
        <mxCell id="cwwSHrmBeuEmUc9zqaJa-100" value="acende o led vermelho" style="whiteSpace=wrap;html=1;rounded=1;" parent="1" vertex="1">
          <mxGeometry x="-270" y="314.7699999999999" width="120" height="60" as="geometry" />
        </mxCell>
        <mxCell id="cwwSHrmBeuEmUc9zqaJa-109" value="" style="edgeStyle=orthogonalEdgeStyle;rounded=0;orthogonalLoop=1;jettySize=auto;html=1;" parent="1" source="cwwSHrmBeuEmUc9zqaJa-105" target="cwwSHrmBeuEmUc9zqaJa-108" edge="1">
          <mxGeometry relative="1" as="geometry" />
        </mxCell>
        <mxCell id="cwwSHrmBeuEmUc9zqaJa-105" value="TMR1 &amp;amp; TMR2 Start" style="whiteSpace=wrap;html=1;rounded=1;" parent="1" vertex="1">
          <mxGeometry x="-700" y="437.2699999999999" width="120" height="60" as="geometry" />
        </mxCell>
        <mxCell id="cwwSHrmBeuEmUc9zqaJa-111" value="" style="edgeStyle=orthogonalEdgeStyle;rounded=0;orthogonalLoop=1;jettySize=auto;html=1;" parent="1" source="cwwSHrmBeuEmUc9zqaJa-108" target="cwwSHrmBeuEmUc9zqaJa-110" edge="1">
          <mxGeometry relative="1" as="geometry" />
        </mxCell>
        <mxCell id="cwwSHrmBeuEmUc9zqaJa-108" value="Desliga o led vermelho" style="whiteSpace=wrap;html=1;rounded=1;" parent="1" vertex="1">
          <mxGeometry x="-700" y="517.73" width="120" height="60" as="geometry" />
        </mxCell>
        <mxCell id="cwwSHrmBeuEmUc9zqaJa-113" value="" style="edgeStyle=orthogonalEdgeStyle;rounded=0;orthogonalLoop=1;jettySize=auto;html=1;" parent="1" source="cwwSHrmBeuEmUc9zqaJa-110" target="cwwSHrmBeuEmUc9zqaJa-112" edge="1">
          <mxGeometry relative="1" as="geometry" />
        </mxCell>
        <mxCell id="cwwSHrmBeuEmUc9zqaJa-114" value="true" style="edgeLabel;html=1;align=center;verticalAlign=middle;resizable=0;points=[];" parent="cwwSHrmBeuEmUc9zqaJa-113" vertex="1" connectable="0">
          <mxGeometry x="-0.0922" y="6" relative="1" as="geometry">
            <mxPoint as="offset" />
          </mxGeometry>
        </mxCell>
        <mxCell id="bHfqTijXWSmWtBkud1IS-1" value="" style="edgeStyle=orthogonalEdgeStyle;rounded=0;orthogonalLoop=1;jettySize=auto;html=1;" edge="1" parent="1" source="cwwSHrmBeuEmUc9zqaJa-110" target="cwwSHrmBeuEmUc9zqaJa-116">
          <mxGeometry relative="1" as="geometry" />
        </mxCell>
        <mxCell id="cwwSHrmBeuEmUc9zqaJa-110" value="if UpdateLCD" style="rhombus;whiteSpace=wrap;html=1;rounded=1;fillColor=#f5f5f5;fontColor=#333333;strokeColor=#666666;" parent="1" vertex="1">
          <mxGeometry x="-680" y="617.73" width="80" height="80" as="geometry" />
        </mxCell>
        <mxCell id="cwwSHrmBeuEmUc9zqaJa-118" style="edgeStyle=orthogonalEdgeStyle;rounded=0;orthogonalLoop=1;jettySize=auto;html=1;entryX=0.5;entryY=0;entryDx=0;entryDy=0;" parent="1" source="cwwSHrmBeuEmUc9zqaJa-112" target="cwwSHrmBeuEmUc9zqaJa-116" edge="1">
          <mxGeometry relative="1" as="geometry">
            <Array as="points">
              <mxPoint x="-480" y="707.73" />
              <mxPoint x="-640" y="707.73" />
            </Array>
          </mxGeometry>
        </mxCell>
        <mxCell id="cwwSHrmBeuEmUc9zqaJa-112" value="Atualiza a interface grafica" style="whiteSpace=wrap;html=1;rounded=1;fillColor=#e1d5e7;strokeColor=#9673a6;" parent="1" vertex="1">
          <mxGeometry x="-530" y="627.73" width="120" height="60" as="geometry" />
        </mxCell>
        <mxCell id="cwwSHrmBeuEmUc9zqaJa-136" value="" style="edgeStyle=orthogonalEdgeStyle;rounded=0;orthogonalLoop=1;jettySize=auto;html=1;" parent="1" source="cwwSHrmBeuEmUc9zqaJa-116" target="cwwSHrmBeuEmUc9zqaJa-135" edge="1">
          <mxGeometry relative="1" as="geometry" />
        </mxCell>
        <mxCell id="cwwSHrmBeuEmUc9zqaJa-116" value="CheckEUSART()" style="whiteSpace=wrap;html=1;rounded=1;fillColor=#e1d5e7;strokeColor=#9673a6;" parent="1" vertex="1">
          <mxGeometry x="-700" y="732.73" width="120" height="60" as="geometry" />
        </mxCell>
        <mxCell id="cwwSHrmBeuEmUc9zqaJa-123" value="" style="edgeStyle=orthogonalEdgeStyle;rounded=0;orthogonalLoop=1;jettySize=auto;html=1;" parent="1" source="cwwSHrmBeuEmUc9zqaJa-120" target="cwwSHrmBeuEmUc9zqaJa-122" edge="1">
          <mxGeometry relative="1" as="geometry" />
        </mxCell>
        <mxCell id="cwwSHrmBeuEmUc9zqaJa-127" value="true" style="edgeLabel;html=1;align=center;verticalAlign=middle;resizable=0;points=[];" parent="cwwSHrmBeuEmUc9zqaJa-123" vertex="1" connectable="0">
          <mxGeometry x="-0.1172" y="-1" relative="1" as="geometry">
            <mxPoint as="offset" />
          </mxGeometry>
        </mxCell>
        <mxCell id="cwwSHrmBeuEmUc9zqaJa-129" value="" style="edgeStyle=orthogonalEdgeStyle;rounded=0;orthogonalLoop=1;jettySize=auto;html=1;" parent="1" source="cwwSHrmBeuEmUc9zqaJa-120" target="cwwSHrmBeuEmUc9zqaJa-128" edge="1">
          <mxGeometry relative="1" as="geometry" />
        </mxCell>
        <mxCell id="cwwSHrmBeuEmUc9zqaJa-130" value="false" style="edgeLabel;html=1;align=center;verticalAlign=middle;resizable=0;points=[];" parent="cwwSHrmBeuEmUc9zqaJa-129" vertex="1" connectable="0">
          <mxGeometry x="-0.4889" relative="1" as="geometry">
            <mxPoint as="offset" />
          </mxGeometry>
        </mxCell>
        <mxCell id="cwwSHrmBeuEmUc9zqaJa-120" value="if nivel de agua = 100%" style="rhombus;whiteSpace=wrap;html=1;rounded=1;fillColor=#f5f5f5;fontColor=#333333;strokeColor=#666666;" parent="1" vertex="1">
          <mxGeometry x="-695" y="942.73" width="110" height="105" as="geometry" />
        </mxCell>
        <mxCell id="cwwSHrmBeuEmUc9zqaJa-125" value="" style="edgeStyle=orthogonalEdgeStyle;rounded=0;orthogonalLoop=1;jettySize=auto;html=1;" parent="1" source="cwwSHrmBeuEmUc9zqaJa-122" target="cwwSHrmBeuEmUc9zqaJa-124" edge="1">
          <mxGeometry relative="1" as="geometry" />
        </mxCell>
        <mxCell id="cwwSHrmBeuEmUc9zqaJa-122" value="TMR4 Start" style="whiteSpace=wrap;html=1;rounded=1;" parent="1" vertex="1">
          <mxGeometry x="-510" y="965.23" width="120" height="60" as="geometry" />
        </mxCell>
        <mxCell id="cwwSHrmBeuEmUc9zqaJa-144" style="edgeStyle=orthogonalEdgeStyle;rounded=0;orthogonalLoop=1;jettySize=auto;html=1;entryX=1;entryY=0.5;entryDx=0;entryDy=0;" parent="1" source="cwwSHrmBeuEmUc9zqaJa-124" target="cwwSHrmBeuEmUc9zqaJa-92" edge="1">
          <mxGeometry relative="1" as="geometry">
            <Array as="points">
              <mxPoint x="-80" y="995" />
              <mxPoint x="-80" y="180" />
            </Array>
          </mxGeometry>
        </mxCell>
        <mxCell id="cwwSHrmBeuEmUc9zqaJa-124" value="Load DC 50%" style="whiteSpace=wrap;html=1;rounded=1;" parent="1" vertex="1">
          <mxGeometry x="-320" y="965.23" width="120" height="60" as="geometry" />
        </mxCell>
        <mxCell id="cwwSHrmBeuEmUc9zqaJa-143" style="edgeStyle=orthogonalEdgeStyle;rounded=0;orthogonalLoop=1;jettySize=auto;html=1;entryX=1;entryY=0.5;entryDx=0;entryDy=0;" parent="1" source="cwwSHrmBeuEmUc9zqaJa-128" target="cwwSHrmBeuEmUc9zqaJa-92" edge="1">
          <mxGeometry relative="1" as="geometry">
            <Array as="points">
              <mxPoint x="-80" y="1113" />
              <mxPoint x="-80" y="180" />
            </Array>
          </mxGeometry>
        </mxCell>
        <mxCell id="cwwSHrmBeuEmUc9zqaJa-128" value="TMR4 Stop" style="whiteSpace=wrap;html=1;rounded=1;" parent="1" vertex="1">
          <mxGeometry x="-700" y="1082.73" width="120" height="60" as="geometry" />
        </mxCell>
        <mxCell id="cwwSHrmBeuEmUc9zqaJa-140" style="edgeStyle=orthogonalEdgeStyle;rounded=0;orthogonalLoop=1;jettySize=auto;html=1;entryX=0.5;entryY=0;entryDx=0;entryDy=0;" parent="1" source="cwwSHrmBeuEmUc9zqaJa-132" target="cwwSHrmBeuEmUc9zqaJa-120" edge="1">
          <mxGeometry relative="1" as="geometry">
            <Array as="points">
              <mxPoint x="-470" y="922.73" />
              <mxPoint x="-640" y="922.73" />
            </Array>
          </mxGeometry>
        </mxCell>
        <mxCell id="cwwSHrmBeuEmUc9zqaJa-132" value="ShowMenuInTerminal()" style="whiteSpace=wrap;html=1;rounded=1;fillColor=#e1d5e7;strokeColor=#9673a6;" parent="1" vertex="1">
          <mxGeometry x="-530" y="837.73" width="120" height="60" as="geometry" />
        </mxCell>
        <mxCell id="cwwSHrmBeuEmUc9zqaJa-137" style="edgeStyle=orthogonalEdgeStyle;rounded=0;orthogonalLoop=1;jettySize=auto;html=1;entryX=0;entryY=0.5;entryDx=0;entryDy=0;" parent="1" source="cwwSHrmBeuEmUc9zqaJa-135" target="cwwSHrmBeuEmUc9zqaJa-132" edge="1">
          <mxGeometry relative="1" as="geometry" />
        </mxCell>
        <mxCell id="cwwSHrmBeuEmUc9zqaJa-141" value="true" style="edgeLabel;html=1;align=center;verticalAlign=middle;resizable=0;points=[];" parent="cwwSHrmBeuEmUc9zqaJa-137" vertex="1" connectable="0">
          <mxGeometry x="-0.3453" y="1" relative="1" as="geometry">
            <mxPoint as="offset" />
          </mxGeometry>
        </mxCell>
        <mxCell id="cwwSHrmBeuEmUc9zqaJa-138" style="edgeStyle=orthogonalEdgeStyle;rounded=0;orthogonalLoop=1;jettySize=auto;html=1;entryX=0.5;entryY=0;entryDx=0;entryDy=0;" parent="1" source="cwwSHrmBeuEmUc9zqaJa-135" target="cwwSHrmBeuEmUc9zqaJa-120" edge="1">
          <mxGeometry relative="1" as="geometry" />
        </mxCell>
        <mxCell id="cwwSHrmBeuEmUc9zqaJa-135" value="if caracter recebido" style="rhombus;whiteSpace=wrap;html=1;rounded=1;fillColor=#f5f5f5;fontColor=#333333;strokeColor=#666666;" parent="1" vertex="1">
          <mxGeometry x="-680" y="827.73" width="80" height="80" as="geometry" />
        </mxCell>
        <mxCell id="cwwSHrmBeuEmUc9zqaJa-146" value="" style="curved=1;endArrow=classic;html=1;rounded=0;exitX=1;exitY=0.5;exitDx=0;exitDy=0;entryX=0;entryY=0.5;entryDx=0;entryDy=0;" parent="1" source="cwwSHrmBeuEmUc9zqaJa-116" target="cwwSHrmBeuEmUc9zqaJa-147" edge="1">
          <mxGeometry width="50" height="50" relative="1" as="geometry">
            <mxPoint x="-530" y="782.73" as="sourcePoint" />
            <mxPoint x="-450" y="740" as="targetPoint" />
            <Array as="points">
              <mxPoint x="-480" y="782.73" />
              <mxPoint x="-530" y="732.73" />
            </Array>
          </mxGeometry>
        </mxCell>
        <mxCell id="cwwSHrmBeuEmUc9zqaJa-147" value="Verifica se o utlizador inseriu algum caracter no terminal" style="text;html=1;strokeColor=none;fillColor=none;align=center;verticalAlign=middle;whiteSpace=wrap;rounded=0;" parent="1" vertex="1">
          <mxGeometry x="-460" y="730" width="173" height="30" as="geometry" />
        </mxCell>
        <mxCell id="cwwSHrmBeuEmUc9zqaJa-149" value="" style="curved=1;endArrow=classic;html=1;rounded=0;exitX=1;exitY=0.5;exitDx=0;exitDy=0;entryX=0;entryY=0.5;entryDx=0;entryDy=0;" parent="1" source="cwwSHrmBeuEmUc9zqaJa-132" target="cwwSHrmBeuEmUc9zqaJa-150" edge="1">
          <mxGeometry width="50" height="50" relative="1" as="geometry">
            <mxPoint x="-330" y="860" as="sourcePoint" />
            <mxPoint x="-280" y="810" as="targetPoint" />
            <Array as="points">
              <mxPoint x="-340" y="880" />
              <mxPoint x="-360" y="840" />
            </Array>
          </mxGeometry>
        </mxCell>
        <mxCell id="cwwSHrmBeuEmUc9zqaJa-150" value="Mostra o menu conforme o caracter inserido" style="text;html=1;strokeColor=none;fillColor=none;align=center;verticalAlign=middle;whiteSpace=wrap;rounded=0;" parent="1" vertex="1">
          <mxGeometry x="-300" y="835.09" width="130" height="27.73" as="geometry" />
        </mxCell>
        <mxCell id="cwwSHrmBeuEmUc9zqaJa-151" value="" style="curved=1;endArrow=classic;html=1;rounded=0;exitX=1;exitY=0.5;exitDx=0;exitDy=0;" parent="1" source="cwwSHrmBeuEmUc9zqaJa-112" target="cwwSHrmBeuEmUc9zqaJa-152" edge="1">
          <mxGeometry width="50" height="50" relative="1" as="geometry">
            <mxPoint x="-370" y="690" as="sourcePoint" />
            <mxPoint x="-320" y="640" as="targetPoint" />
            <Array as="points">
              <mxPoint x="-360" y="680" />
              <mxPoint x="-370" y="640" />
            </Array>
          </mxGeometry>
        </mxCell>
        <mxCell id="cwwSHrmBeuEmUc9zqaJa-152" value="Atualiza o LCD no loop para não pesar na interrupção, aqui também são calculados os tamanhos da interface gráfica dinâmica" style="text;html=1;strokeColor=none;fillColor=none;align=center;verticalAlign=middle;whiteSpace=wrap;rounded=0;" parent="1" vertex="1">
          <mxGeometry x="-310" y="642.73" width="160" height="30" as="geometry" />
        </mxCell>
        <mxCell id="cwwSHrmBeuEmUc9zqaJa-153" value="" style="curved=1;endArrow=classic;html=1;rounded=0;exitX=1;exitY=0;exitDx=0;exitDy=0;" parent="1" source="cwwSHrmBeuEmUc9zqaJa-92" edge="1">
          <mxGeometry width="50" height="50" relative="1" as="geometry">
            <mxPoint x="-260" y="190" as="sourcePoint" />
            <mxPoint x="-210" y="140" as="targetPoint" />
            <Array as="points">
              <mxPoint x="-280" y="156" />
              <mxPoint x="-290" y="130" />
              <mxPoint x="-240" y="140" />
            </Array>
          </mxGeometry>
        </mxCell>
        <mxCell id="cwwSHrmBeuEmUc9zqaJa-154" value="never false" style="text;html=1;strokeColor=none;fillColor=none;align=center;verticalAlign=middle;whiteSpace=wrap;rounded=0;" parent="1" vertex="1">
          <mxGeometry x="-220" y="120" width="60" height="30" as="geometry" />
        </mxCell>
        <mxCell id="bHfqTijXWSmWtBkud1IS-3" value="erro = nivel de referencia -&amp;nbsp; nivel real" style="text;html=1;strokeColor=none;fillColor=none;align=center;verticalAlign=middle;whiteSpace=wrap;rounded=0;" vertex="1" parent="1">
          <mxGeometry x="284" y="775.09" width="230" height="30" as="geometry" />
        </mxCell>
        <mxCell id="bHfqTijXWSmWtBkud1IS-4" value="" style="curved=1;endArrow=classic;html=1;rounded=0;entryX=0;entryY=0;entryDx=0;entryDy=0;exitX=0;exitY=0.75;exitDx=0;exitDy=0;" edge="1" parent="1" source="cwwSHrmBeuEmUc9zqaJa-55" target="bHfqTijXWSmWtBkud1IS-3">
          <mxGeometry width="50" height="50" relative="1" as="geometry">
            <mxPoint x="90" y="825.09" as="sourcePoint" />
            <mxPoint x="140" y="775.09" as="targetPoint" />
            <Array as="points">
              <mxPoint x="250" y="750" />
            </Array>
          </mxGeometry>
        </mxCell>
        <mxCell id="bHfqTijXWSmWtBkud1IS-6" value="este timer so esta ligado quando o sistema de controlo esta ligado" style="text;html=1;strokeColor=none;fillColor=none;align=center;verticalAlign=middle;whiteSpace=wrap;rounded=0;" vertex="1" parent="1">
          <mxGeometry x="14" y="790.09" width="236" height="30" as="geometry" />
        </mxCell>
        <mxCell id="bHfqTijXWSmWtBkud1IS-8" value="" style="curved=1;endArrow=classic;html=1;rounded=0;entryX=0.5;entryY=0;entryDx=0;entryDy=0;exitX=0.5;exitY=1;exitDx=0;exitDy=0;" edge="1" parent="1" source="cwwSHrmBeuEmUc9zqaJa-5" target="bHfqTijXWSmWtBkud1IS-6">
          <mxGeometry width="50" height="50" relative="1" as="geometry">
            <mxPoint x="150" y="820" as="sourcePoint" />
            <mxPoint x="200" y="770" as="targetPoint" />
            <Array as="points">
              <mxPoint x="100" y="760" />
            </Array>
          </mxGeometry>
        </mxCell>
      </root>
    </mxGraphModel>
  </diagram>
</mxfile>
